<svg xmlns="http://www.w3.org/2000/svg" width="1200" height="1200" viewBox="0 0 1200 1200">
<metadata>
  <title>CoGnosis Seal with Olive Branch</title>
  <desc>Minted 2025-09-04T05:10:56.159141Z — Olive branch term by Olivia, integrated into CoGnosis Seal.</desc>
</metadata>
<g shape-rendering="geometricPrecision">
<rect x="0" y="0" width="1200" height="1200" fill="#F7F3EA"/>
<circle cx="600.0" cy="600.0" r="520" fill="none" stroke="#9AA1A8" stroke-width="10" stroke-dasharray="12 10"/>
<circle cx="600.0" cy="600.0" r="540" fill="none" stroke="#9AA1A8" stroke-width="10" stroke-dasharray="10 12" stroke-linecap="round"/>
<circle cx="600.0" cy="600.0" r="360" fill="none" stroke="#D2A73B" stroke-width="24"/>
<path d="M 549.90 243.50 Q 600.00 170.00 650.10 243.50" fill="none" stroke="#D2A73B" stroke-width="18" stroke-linecap="round"/>
<path d="M 734.86 266.21 Q 815.00 227.61 821.64 316.32" fill="none" stroke="#D2A73B" stroke-width="18" stroke-linecap="round"/>
<path d="M 883.68 378.36 Q 972.39 385.00 933.79 465.14" fill="none" stroke="#D2A73B" stroke-width="18" stroke-linecap="round"/>
<path d="M 956.50 549.90 Q 1030.00 600.00 956.50 650.10" fill="none" stroke="#D2A73B" stroke-width="18" stroke-linecap="round"/>
<path d="M 933.79 734.86 Q 972.39 815.00 883.68 821.64" fill="none" stroke="#D2A73B" stroke-width="18" stroke-linecap="round"/>
<path d="M 821.64 883.68 Q 815.00 972.39 734.86 933.79" fill="none" stroke="#D2A73B" stroke-width="18" stroke-linecap="round"/>
<path d="M 650.10 956.50 Q 600.00 1030.00 549.90 956.50" fill="none" stroke="#D2A73B" stroke-width="18" stroke-linecap="round"/>
<path d="M 465.14 933.79 Q 385.00 972.39 378.36 883.68" fill="none" stroke="#D2A73B" stroke-width="18" stroke-linecap="round"/>
<path d="M 316.32 821.64 Q 227.61 815.00 266.21 734.86" fill="none" stroke="#D2A73B" stroke-width="18" stroke-linecap="round"/>
<path d="M 243.50 650.10 Q 170.00 600.00 243.50 549.90" fill="none" stroke="#D2A73B" stroke-width="18" stroke-linecap="round"/>
<path d="M 266.21 465.14 Q 227.61 385.00 316.32 378.36" fill="none" stroke="#D2A73B" stroke-width="18" stroke-linecap="round"/>
<path d="M 378.36 316.32 Q 385.00 227.61 465.14 266.21" fill="none" stroke="#D2A73B" stroke-width="18" stroke-linecap="round"/>
<path d="M 600.000 540.000 L 601.897 539.630 L 603.818 539.320 L 605.759 539.072 L 607.721 538.886 L 609.699 538.763 L 611.693 538.705 L 613.699 538.712 L 615.717 538.786 L 617.744 538.925 L 619.777 539.132 L 621.815 539.407 L 623.854 539.750 L 625.894 540.162 L 627.931 540.643 L 629.963 541.194 L 631.988 541.813 L 634.004 542.502 L 636.008 543.261 L 637.997 544.089 L 639.969 544.987 L 641.923 545.953 L 643.855 546.989 L 645.763 548.092 L 647.644 549.264 L 649.497 550.503 L 651.319 551.808 L 653.108 553.179 L 654.861 554.615 L 656.575 556.116 L 658.249 557.679 L 659.881 559.305 L 661.467 560.992 L 663.006 562.738 L 664.496 564.543 L 665.934 566.405 L 667.319 568.322 L 668.648 570.293 L 669.919 572.317 L 671.131 574.391 L 672.280 576.515 L 673.366 578.685 L 674.387 580.901 L 675.341 583.159 L 676.225 585.459 L 677.040 587.798 L 677.782 590.174 L 678.450 592.584 L 679.044 595.027 L 679.561 597.500 L 680.000 600.000 L 680.360 602.525 L 680.641 605.073 L 680.840 607.642 L 680.957 610.227 L 680.990 612.828 L 680.940 615.440 L 680.806 618.062 L 680.586 620.691 L 680.281 623.324 L 679.889 625.957 L 679.410 628.589 L 678.845 631.217 L 678.193 633.837 L 677.453 636.447 L 676.627 639.043 L 675.713 641.624 L 674.712 644.185 L 673.625 646.724 L 672.452 649.239 L 671.193 651.725 L 669.850 654.181 L 668.422 656.603 L 666.910 658.989 L 665.316 661.335 L 663.640 663.640 L 661.883 665.899 L 660.047 668.110 L 658.133 670.271 L 656.142 672.378 L 654.076 674.430 L 651.937 676.422 L 649.725 678.354 L 647.443 680.221 L 645.092 682.022 L 642.675 683.755 L 640.194 685.416 L 637.650 687.003 L 635.045 688.515 L 632.383 689.948 L 629.666 691.301 L 626.895 692.572 L 624.073 693.759 L 621.204 694.859 L 618.288 695.871 L 615.331 696.793 L 612.333 697.624 L 609.298 698.362 L 606.229 699.004 L 603.129 699.551 L 600.000 700.000 L 596.846 700.350 L 593.671 700.601 L 590.476 700.751 L 587.266 700.799 L 584.044 700.744 L 580.812 700.586 L 577.575 700.324 L 574.335 699.958 L 571.097 699.486 L 567.862 698.910 L 564.636 698.228 L 561.421 697.441 L 558.220 696.548 L 555.038 695.550 L 551.877 694.447 L 548.741 693.239 L 545.634 691.927 L 542.559 690.512 L 539.520 688.994 L 536.519 687.374 L 533.561 685.653 L 530.648 683.832 L 527.785 681.912 L 524.974 679.895 L 522.218 677.782 L 519.522 675.574 L 516.888 673.273 L 514.319 670.882 L 511.819 668.400 L 509.390 665.832 L 507.036 663.178 L 504.760 660.441 L 502.564 657.623 L 500.452 654.727 L 498.425 651.755 L 496.488 648.709 L 494.642 645.593 L 492.890 642.408 L 491.234 639.158 L 489.677 635.846 L 488.222 632.475 L 486.869 629.047 L 485.623 625.566 L 484.483 622.036 L 483.453 618.459 L 482.534 614.839 L 481.727 611.180 L 481.035 607.485 L 480.459 603.757 L 480.000 600.000 L 479.659 596.218 L 479.438 592.415 L 479.338 588.594 L 479.359 584.759 L 479.502 580.915 L 479.768 577.065 L 480.157 573.212 L 480.671 569.361 L 481.308 565.517 L 482.069 561.682 L 482.954 557.861 L 483.964 554.058 L 485.097 550.277 L 486.354 546.522 L 487.733 542.797 L 489.235 539.106 L 490.858 535.454 L 492.601 531.843 L 494.465 528.278 L 496.446 524.763 L 498.544 521.303 L 500.758 517.900 L 503.086 514.559 L 505.526 511.283 L 508.076 508.076 L 510.735 504.942 L 513.500 501.885 L 516.370 498.909 L 519.341 496.016 L 522.412 493.210 L 525.580 490.495 L 528.842 487.873 L 532.196 485.349 L 535.638 482.925 L 539.165 480.605 L 542.775 478.391 L 546.464 476.287 L 550.230 474.294 L 554.067 472.417 L 557.974 470.656 L 561.946 469.016 L 565.979 467.498 L 570.071 466.104 L 574.216 464.837 L 578.412 463.699 L 582.654 462.691 L 586.938 461.816 L 591.260 461.075 L 595.615 460.469 L 600.000 460.000 L 604.410 459.669 L 608.841 459.478 L 613.288 459.427 L 617.747 459.517 L 622.214 459.748 L 626.683 460.122 L 631.151 460.639 L 635.612 461.299 L 640.063 462.102 L 644.498 463.048 L 648.914 464.137 L 653.304 465.368 L 657.666 466.742 L 661.993 468.257 L 666.283 469.913 L 670.529 471.709 L 674.727 473.643 L 678.874 475.715 L 682.964 477.923 L 686.992 480.265 L 690.955 482.741 L 694.849 485.348 L 698.668 488.083 L 702.408 490.946 L 706.066 493.934 L 709.637 497.044 L 713.117 500.274 L 716.502 503.621 L 719.787 507.083 L 722.971 510.657 L 726.047 514.338 L 729.013 518.126 L 731.866 522.015 L 734.601 526.003 L 737.215 530.085 L 739.705 534.260 L 742.068 538.522 L 744.301 542.867 L 746.401 547.292 L 748.365 551.793 L 750.190 556.366 L 751.874 561.005 L 753.414 565.708 L 754.808 570.469 L 756.055 575.283 L 757.151 580.147 L 758.095 585.056 L 758.886 590.004 L 759.521 594.987 L 760.000 600.000 L 760.321 605.038 L 760.483 610.097 L 760.485 615.170 L 760.326 620.254 L 760.006 625.342 L 759.523 630.431 L 758.879 635.514 L 758.073 640.586 L 757.104 645.643 L 755.973 650.679 L 754.681 655.689 L 753.227 660.667 L 751.613 665.609 L 749.839 670.509 L 747.907 675.362 L 745.817 680.164 L 743.572 684.908 L 741.172 689.590 L 738.619 694.205 L 735.915 698.748 L 733.062 703.214 L 730.063 707.597 L 726.919 711.894 L 723.633 716.099 L 720.208 720.208 L 716.647 724.216 L 712.952 728.119 L 709.127 731.912 L 705.175 735.591 L 701.099 739.151 L 696.903 742.589 L 692.591 745.900 L 688.166 749.081 L 683.632 752.127 L 678.994 755.035 L 674.256 757.802 L 669.421 760.424 L 664.495 762.897 L 659.482 765.219 L 654.387 767.386 L 649.214 769.396 L 643.968 771.246 L 638.655 772.932 L 633.279 774.454 L 627.845 775.809 L 622.359 776.993 L 616.827 778.006 L 611.252 778.846 L 605.641 779.511 L 600.000 780.000 L 594.333 780.311 L 588.647 780.443 L 582.948 780.396 L 577.239 780.168 L 571.529 779.759 L 565.822 779.169 L 560.123 778.398 L 554.440 777.444 L 548.777 776.310 L 543.141 774.994 L 537.537 773.498 L 531.971 771.823 L 526.448 769.968 L 520.975 767.936 L 515.558 765.727 L 510.201 763.344 L 504.911 760.787 L 499.693 758.058 L 494.553 755.160 L 489.496 752.095 L 484.528 748.865 L 479.654 745.473 L 474.880 741.921 L 470.210 738.212 L 465.650 734.350 L 461.204 730.338 L 456.879 726.178 L 452.678 721.875 L 448.606 717.433 L 444.669 712.855 L 440.870 708.145 L 437.214 703.307 L 433.705 698.347 L 430.347 693.268 L 427.145 688.074 L 424.102 682.771 L 421.221 677.364 L 418.508 671.858 L 415.964 666.257 L 413.593 660.567 L 411.398 654.794 L 409.383 648.942 L 407.549 643.018 L 405.900 637.027 L 404.438 630.974 L 403.164 624.866 L 402.082 618.709 L 401.193 612.508 L 400.498 606.270 L 400.000 600.000 L 399.699 593.705 L 399.596 587.392 L 399.693 581.065 L 399.990 574.733 L 400.487 568.400 L 401.185 562.074 L 402.084 555.761 L 403.184 549.466 L 404.484 543.197 L 405.984 536.961 L 407.684 530.762 L 409.582 524.608 L 411.677 518.505 L 413.968 512.460 L 416.453 506.478 L 419.130 500.566 L 421.999 494.730 L 425.055 488.977 L 428.298 483.311 L 431.724 477.741 L 435.332 472.270 L 439.117 466.906 L 443.077 461.654 L 447.208 456.519 L 451.508 451.508 L 455.971 446.625 L 460.595 441.877 L 465.376 437.268 L 470.309 432.803 L 475.390 428.488 L 480.613 424.328 L 485.976 420.327 L 491.472 416.490 L 497.097 412.821 L 502.846 409.325 L 508.713 406.005 L 514.693 402.866 L 520.780 399.912 L 526.968 397.146 L 533.252 394.572 L 539.626 392.192 L 546.084 390.011 L 552.619 388.031 L 559.226 386.254 L 565.897 384.684 L 572.627 383.322 L 579.409 382.171 L 586.236 381.233 L 593.102 380.508 L 600.000 380.000 L 606.923 379.709 L 613.864 379.636 L 620.817 379.782 L 627.774 380.147 L 634.728 380.733 L 641.674 381.539 L 648.602 382.566 L 655.508 383.812 L 662.382 385.278 L 669.220 386.963 L 676.013 388.866 L 682.754 390.986 L 689.438 393.322 L 696.056 395.871 L 702.602 398.633 L 709.069 401.604 L 715.451 404.784 L 721.740 408.169 L 727.930 411.756 L 734.015 415.544 L 739.988 419.529 L 745.843 423.707 L 751.573 428.075 L 757.172 432.629 L 762.635 437.365 L 767.954 442.280 L 773.126 447.369 L 778.143 452.628 L 783.000 458.051 L 787.692 463.634 L 792.214 469.372 L 796.560 475.260 L 800.725 481.292 L 804.705 487.462 L 808.496 493.766 L 812.091 500.197 L 815.489 506.750 L 818.683 513.417 L 821.672 520.193 L 824.449 527.072 L 827.013 534.047 L 829.360 541.110 L 831.487 548.256 L 833.391 555.478 L 835.070 562.769 L 836.520 570.121 L 837.740 577.527 L 838.728 584.981 L 839.482 592.474 L 840.000 600.000 L 840.281 607.551 L 840.325 615.120 L 840.130 622.699 L 839.695 630.281 L 839.021 637.857 L 838.106 645.421 L 836.953 652.965 L 835.559 660.481 L 833.928 667.962 L 832.058 675.400 L 829.951 682.788 L 827.609 690.117 L 825.033 697.381 L 822.226 704.571 L 819.188 711.682 L 815.922 718.704 L 812.431 725.631 L 808.718 732.456 L 804.785 739.172 L 800.636 745.771 L 796.275 752.246 L 791.704 758.591 L 786.928 764.799 L 781.951 770.863 L 776.777 776.777 L 771.411 782.534 L 765.857 788.128 L 760.121 793.553 L 754.207 798.803 L 748.122 803.872 L 741.870 808.755 L 735.457 813.446 L 728.889 817.940 L 722.173 822.231 L 715.314 826.316 L 708.318 830.188 L 701.193 833.844 L 693.945 837.279 L 686.581 840.489 L 679.108 843.470 L 671.533 846.219 L 663.864 848.732 L 656.106 851.006 L 648.269 853.037 L 640.360 854.824 L 632.386 856.362 L 624.355 857.651 L 616.275 858.689 L 608.154 859.472 L 600.000 860.000 L 591.821 860.272 L 583.624 860.285 L 575.419 860.041 L 567.213 859.537 L 559.014 858.774 L 550.831 857.752 L 542.672 856.471 L 534.545 854.931 L 526.458 853.133 L 518.420 851.079 L 510.438 848.769 L 502.521 846.205 L 494.676 843.389 L 486.913 840.322 L 479.239 837.008 L 471.661 833.448 L 464.188 829.646 L 456.827 825.604 L 449.586 821.327 L 442.474 816.817 L 435.496 812.078 L 428.660 807.114 L 421.975 801.930 L 415.446 796.530 L 409.081 790.919 L 402.887 785.102 L 396.870 779.083 L 391.037 772.869 L 385.394 766.466 L 379.947 759.878 L 374.703 753.112 L 369.667 746.174 L 364.845 739.070 L 360.242 731.808 L 355.864 724.393 L 351.715 716.834 L 347.801 709.136 L 344.126 701.308 L 340.693 693.356 L 337.508 685.289 L 334.575 677.113 L 331.896 668.837 L 329.476 660.469 L 327.317 652.017 L 325.423 643.489 L 323.795 634.893 L 322.437 626.237 L 321.351 617.531 L 320.538 608.782 L 320.000 600.000 L 319.738 591.192 L 319.754 582.368 L 320.048 573.537 L 320.621 564.706 L 321.472 555.885 L 322.602 547.084 L 324.011 538.309 L 325.697 529.571 L 327.661 520.878 L 329.900 512.239 L 332.414 503.663 L 335.200 495.158 L 338.256 486.733 L 341.581 478.397 L 345.172 470.159 L 349.026 462.026 L 353.139 454.007 L 357.509 446.111 L 362.132 438.345 L 367.003 430.718 L 372.119 423.238 L 377.476 415.912 L 383.068 408.749 L 388.891 401.755 L 394.939 394.939 L 401.208 388.308 L 407.691 381.868 L 414.382 375.627 L 421.276 369.591 L 428.367 363.767 L 435.647 358.162 L 443.110 352.781 L 450.749 347.630 L 458.557 342.716 L 466.527 338.044 L 474.651 333.619 L 482.921 329.446 L 491.330 325.530 L 499.869 321.876 L 508.531 318.487 L 517.307 315.369 L 526.189 312.525 L 535.168 309.958 L 544.235 307.671 L 553.383 305.669 L 562.601 303.953 L 571.880 302.526 L 581.213 301.390 L 590.589 300.548 L 600.000 300.000" fill="none" stroke="#224B8F" stroke-width="24" stroke-linecap="round"/>
<path d="M 600.000 505.000 L 641.219 685.592 L 525.726 540.768 L 692.618 621.139 L 507.382 621.139 L 674.274 540.768 L 558.781 685.592 Z" fill="none" stroke="#224B8F" stroke-width="20" stroke-linejoin="round"/>
<path d="M 520.0 130.0 Q 600.0 70.0 680.0 130.0" fill="none" stroke="#CC5A2A" stroke-width="16" stroke-linecap="round"/>
<ellipse cx="600.0" cy="170.0" rx="95" ry="55" fill="none" stroke="#CC5A2A" stroke-width="16"/>
<circle cx="600.0" cy="170.0" r="18" fill="#CC5A2A"/>
<path d="M 1027.5601424575884 444.38083478682074 c 45,-60 35,-120 -5,-160 c 8,60 -22,80 -44,110 c -20,28 -18,60 5,84 Z" fill="none" stroke="#CC5A2A" stroke-width="20" stroke-linejoin="round"/>
<path d="M 237.4398575424117 444.38083478682074 A 65 90 0 1 1 107.43985754241169 444.38083478682074 A 40 90 0 1 0 237.4398575424117 444.38083478682074" fill="none" stroke="#CC5A2A" stroke-width="20"/>
<path d="M 599.9999999999999 180.0 C 539.9999999999999 135.0, 559.9999999999999 60.0, 599.9999999999999 15.0 C 639.9999999999999 60.0, 659.9999999999999 135.0, 599.9999999999999 180.0 Z" fill="none" stroke="#CC5A2A" stroke-width="20" stroke-linejoin="round"/>
<path d="M 390.000 955.000 L 411.000 946.450 L 432.000 938.800 L 453.000 932.050 L 474.000 926.200 L 495.000 921.250 L 516.000 917.200 L 537.000 914.050 L 558.000 911.800 L 579.000 910.450 L 600.000 910.000 L 621.000 910.450 L 642.000 911.800 L 663.000 914.050 L 684.000 917.200 L 705.000 921.250 L 726.000 926.200 L 747.000 932.050 L 768.000 938.800 L 789.000 946.450 L 810.000 955.000" fill="none" stroke="#4B7F3A" stroke-width="10.0" stroke-linecap="round"/><path d="M 432.0 938.8 q 20.0 -30.0 50.0 -10.0 q -20.0 30.0 -50.0 10.0 Z" fill="#4B7F3A" opacity="0.85"/><path d="M 495.0 921.2 q 20.0 -30.0 50.0 -10.0 q -20.0 30.0 -50.0 10.0 Z" fill="#4B7F3A" opacity="0.85"/><path d="M 558.0 911.8 q 20.0 -30.0 50.0 -10.0 q -20.0 30.0 -50.0 10.0 Z" fill="#4B7F3A" opacity="0.85"/><path d="M 621.0 910.5 q 20.0 -30.0 50.0 -10.0 q -20.0 30.0 -50.0 10.0 Z" fill="#4B7F3A" opacity="0.85"/><path d="M 684.0 917.2 q 20.0 -30.0 50.0 -10.0 q -20.0 30.0 -50.0 10.0 Z" fill="#4B7F3A" opacity="0.85"/><path d="M 747.0 932.0 q 20.0 -30.0 50.0 -10.0 q -20.0 30.0 -50.0 10.0 Z" fill="#4B7F3A" opacity="0.85"/>
<path d="M 810.000 955.000 L 789.000 946.450 L 768.000 938.800 L 747.000 932.050 L 726.000 926.200 L 705.000 921.250 L 684.000 917.200 L 663.000 914.050 L 642.000 911.800 L 621.000 910.450 L 600.000 910.000 L 579.000 910.450 L 558.000 911.800 L 537.000 914.050 L 516.000 917.200 L 495.000 921.250 L 474.000 926.200 L 453.000 932.050 L 432.000 938.800 L 411.000 946.450 L 390.000 955.000" fill="none" stroke="#4B7F3A" stroke-width="10.0" stroke-linecap="round"/><path d="M 768.0 938.8 q 20.0 -30.0 50.0 -10.0 q -20.0 30.0 -50.0 10.0 Z" fill="#4B7F3A" opacity="0.85"/><path d="M 705.0 921.2 q 20.0 -30.0 50.0 -10.0 q -20.0 30.0 -50.0 10.0 Z" fill="#4B7F3A" opacity="0.85"/><path d="M 642.0 911.8 q 20.0 -30.0 50.0 -10.0 q -20.0 30.0 -50.0 10.0 Z" fill="#4B7F3A" opacity="0.85"/><path d="M 579.0 910.5 q 20.0 -30.0 50.0 -10.0 q -20.0 30.0 -50.0 10.0 Z" fill="#4B7F3A" opacity="0.85"/><path d="M 516.0 917.2 q 20.0 -30.0 50.0 -10.0 q -20.0 30.0 -50.0 10.0 Z" fill="#4B7F3A" opacity="0.85"/><path d="M 453.0 932.0 q 20.0 -30.0 50.0 -10.0 q -20.0 30.0 -50.0 10.0 Z" fill="#4B7F3A" opacity="0.85"/>
</g>
</svg>