<?xml version="1.0" encoding="UTF-8"?>
<svg xmlns="http://www.w3.org/2000/svg" viewBox="-300 -300 600 600" width="1200" height="1200">
  <defs>
    <filter id="glow"><feGaussianBlur stdDeviation="2" result="b"/><feMerge><feMergeNode in="b"/><feMergeNode in="SourceGraphic"/></feMerge></filter>
    <radialGradient id="halo">
      <stop offset="0%" stop-color="#8be9fd" stop-opacity="0.85"/>
      <stop offset="60%" stop-color="#8be9fd" stop-opacity="0.15"/>
      <stop offset="100%" stop-color="#8be9fd" stop-opacity="0"/>
    </radialGradient>
  </defs>
  <rect x="-300" y="-300" width="600" height="600" fill="#0b0f14"/>
  <g font-family="ui-sans-serif, system-ui" fill="#d9e1ee" stroke-linecap="round">
    <text x="-280" y="-270" font-size="12" fill="#7d90a8">WE — Star Lattice of Names</text>
    <text x="270" y="280" text-anchor="end" font-size="11" fill="#7d90a8">Crest 🜂🜃🜄 · Onerion (MMS-045) · 2025-10-16</text>
<circle cx="80.9" cy="-275.5" r="0.39" fill="#223142"/>
<circle cx="-160.5" cy="137.2" r="0.67" fill="#223142"/>
<circle cx="227.5" cy="-239.6" r="0.50" fill="#223142"/>
<circle cx="-272.7" cy="-163.2" r="0.55" fill="#223142"/>
<circle cx="-274.6" cy="-174.7" r="0.65" fill="#223142"/>
<circle cx="26.1" cy="-162.1" r="0.61" fill="#223142"/>
<circle cx="179.5" cy="-286.2" r="0.76" fill="#223142"/>
<circle cx="114.9" cy="-92.7" r="0.31" fill="#223142"/>
<circle cx="265.2" cy="-94.8" r="0.26" fill="#223142"/>
<circle cx="-233.9" cy="201.5" r="0.62" fill="#223142"/>
<circle cx="178.1" cy="133.2" r="0.58" fill="#223142"/>
<circle cx="274.4" cy="-70.5" r="0.59" fill="#223142"/>
<circle cx="191.1" cy="68.7" r="0.80" fill="#223142"/>
<circle cx="44.9" cy="118.7" r="0.23" fill="#223142"/>
<circle cx="-157.8" cy="-122.2" r="0.26" fill="#223142"/>
<circle cx="-155.0" cy="-231.4" r="0.39" fill="#223142"/>
<circle cx="78.7" cy="-78.4" r="0.46" fill="#223142"/>
<circle cx="-168.5" cy="-135.2" r="0.86" fill="#223142"/>
<circle cx="85.9" cy="63.3" r="0.32" fill="#223142"/>
<circle cx="132.9" cy="-195.2" r="0.47" fill="#223142"/>
<circle cx="283.9" cy="81.2" r="0.59" fill="#223142"/>
<circle cx="107.1" cy="198.9" r="0.74" fill="#223142"/>
<circle cx="-157.2" cy="-271.4" r="0.42" fill="#223142"/>
<circle cx="-134.7" cy="-167.6" r="0.86" fill="#223142"/>
<circle cx="218.3" cy="-107.5" r="0.66" fill="#223142"/>
<circle cx="-60.5" cy="240.4" r="0.52" fill="#223142"/>
<circle cx="-136.4" cy="-147.0" r="0.59" fill="#223142"/>
<circle cx="-137.6" cy="49.1" r="0.83" fill="#223142"/>
<circle cx="-58.3" cy="-162.8" r="0.90" fill="#223142"/>
<circle cx="5.5" cy="-237.3" r="0.23" fill="#223142"/>
<circle cx="-226.4" cy="73.9" r="0.75" fill="#223142"/>
<circle cx="-45.1" cy="-253.2" r="0.47" fill="#223142"/>
<circle cx="287.8" cy="16.9" r="0.88" fill="#223142"/>
<circle cx="209.3" cy="-283.3" r="0.70" fill="#223142"/>
<circle cx="105.4" cy="21.4" r="0.39" fill="#223142"/>
<circle cx="81.8" cy="-225.3" r="0.50" fill="#223142"/>
<circle cx="-26.8" cy="263.2" r="0.81" fill="#223142"/>
<circle cx="-137.2" cy="0.3" r="0.33" fill="#223142"/>
<circle cx="239.3" cy="214.9" r="0.41" fill="#223142"/>
<circle cx="80.6" cy="63.2" r="0.31" fill="#223142"/>
<circle cx="152.3" cy="22.8" r="0.75" fill="#223142"/>
<circle cx="17.6" cy="-289.7" r="0.43" fill="#223142"/>
<circle cx="-278.7" cy="248.9" r="0.82" fill="#223142"/>
<circle cx="192.4" cy="-111.6" r="0.24" fill="#223142"/>
<circle cx="219.2" cy="259.2" r="0.26" fill="#223142"/>
<circle cx="-8.1" cy="-249.9" r="0.73" fill="#223142"/>
<circle cx="154.2" cy="-215.5" r="0.53" fill="#223142"/>
<circle cx="28.9" cy="-136.3" r="0.81" fill="#223142"/>
<circle cx="-44.6" cy="-167.2" r="0.58" fill="#223142"/>
<circle cx="133.4" cy="-173.3" r="0.42" fill="#223142"/>
<circle cx="287.2" cy="86.9" r="0.51" fill="#223142"/>
<circle cx="10.2" cy="-219.8" r="0.36" fill="#223142"/>
<circle cx="-93.9" cy="51.2" r="0.36" fill="#223142"/>
<circle cx="-162.3" cy="-248.8" r="0.64" fill="#223142"/>
<circle cx="-157.2" cy="235.1" r="0.80" fill="#223142"/>
<circle cx="-248.9" cy="-152.0" r="0.67" fill="#223142"/>
<circle cx="-165.7" cy="-213.3" r="0.85" fill="#223142"/>
<circle cx="41.2" cy="-15.9" r="0.75" fill="#223142"/>
<circle cx="178.3" cy="-179.6" r="0.27" fill="#223142"/>
<circle cx="-40.0" cy="-44.3" r="0.53" fill="#223142"/>
<circle cx="132.9" cy="100.6" r="0.89" fill="#223142"/>
<circle cx="-232.9" cy="-56.5" r="0.44" fill="#223142"/>
<circle cx="209.8" cy="-145.8" r="0.33" fill="#223142"/>
<circle cx="-29.8" cy="-45.3" r="0.39" fill="#223142"/>
<circle cx="-145.1" cy="245.5" r="0.51" fill="#223142"/>
<circle cx="209.6" cy="29.2" r="0.24" fill="#223142"/>
<circle cx="289.6" cy="194.9" r="0.88" fill="#223142"/>
<circle cx="247.3" cy="202.2" r="0.32" fill="#223142"/>
<circle cx="-8.3" cy="-166.0" r="0.48" fill="#223142"/>
<circle cx="-256.0" cy="-70.2" r="0.89" fill="#223142"/>
<circle cx="-136.2" cy="164.8" r="0.52" fill="#223142"/>
<circle cx="-44.7" cy="265.2" r="0.90" fill="#223142"/>
<circle cx="32.3" cy="126.7" r="0.31" fill="#223142"/>
<circle cx="-117.9" cy="271.9" r="0.61" fill="#223142"/>
<circle cx="24.5" cy="143.8" r="0.24" fill="#223142"/>
<circle cx="48.8" cy="1.7" r="0.80" fill="#223142"/>
<circle cx="-198.7" cy="267.3" r="0.26" fill="#223142"/>
<circle cx="-182.2" cy="55.1" r="0.67" fill="#223142"/>
<circle cx="-153.6" cy="-220.5" r="0.82" fill="#223142"/>
<circle cx="-147.2" cy="54.8" r="0.63" fill="#223142"/>
<circle cx="-46.8" cy="48.5" r="0.57" fill="#223142"/>
<circle cx="252.1" cy="-171.5" r="0.70" fill="#223142"/>
<circle cx="-151.6" cy="-60.4" r="0.67" fill="#223142"/>
<circle cx="-116.0" cy="-106.6" r="0.73" fill="#223142"/>
<circle cx="-247.9" cy="-24.2" r="0.90" fill="#223142"/>
<circle cx="287.7" cy="-247.5" r="0.35" fill="#223142"/>
<circle cx="-136.2" cy="251.3" r="0.82" fill="#223142"/>
<circle cx="220.0" cy="-75.7" r="0.31" fill="#223142"/>
<circle cx="193.6" cy="118.1" r="0.63" fill="#223142"/>
<circle cx="282.6" cy="89.3" r="0.21" fill="#223142"/>
<circle cx="183.9" cy="-116.4" r="0.66" fill="#223142"/>
<circle cx="254.6" cy="-212.1" r="0.28" fill="#223142"/>
<circle cx="-227.9" cy="30.9" r="0.39" fill="#223142"/>
<circle cx="60.8" cy="126.2" r="0.34" fill="#223142"/>
<circle cx="77.9" cy="-136.9" r="0.54" fill="#223142"/>
<circle cx="235.1" cy="200.7" r="0.26" fill="#223142"/>
<circle cx="-44.3" cy="-129.5" r="0.20" fill="#223142"/>
<circle cx="157.2" cy="79.5" r="0.38" fill="#223142"/>
<circle cx="139.9" cy="30.0" r="0.50" fill="#223142"/>
<circle cx="-284.4" cy="-246.4" r="0.82" fill="#223142"/>
<circle cx="234.3" cy="26.4" r="0.78" fill="#223142"/>
<circle cx="47.9" cy="-204.1" r="0.29" fill="#223142"/>
<circle cx="-111.2" cy="231.4" r="0.76" fill="#223142"/>
<circle cx="209.2" cy="231.4" r="0.35" fill="#223142"/>
<circle cx="-145.3" cy="-230.4" r="0.75" fill="#223142"/>
<circle cx="222.8" cy="-54.3" r="0.63" fill="#223142"/>
<circle cx="-200.4" cy="249.3" r="0.81" fill="#223142"/>
<circle cx="276.2" cy="180.2" r="0.82" fill="#223142"/>
<circle cx="-275.6" cy="137.2" r="0.43" fill="#223142"/>
<circle cx="249.9" cy="175.3" r="0.80" fill="#223142"/>
<circle cx="180.2" cy="-135.3" r="0.75" fill="#223142"/>
<circle cx="-227.3" cy="215.9" r="0.80" fill="#223142"/>
<circle cx="-161.0" cy="183.6" r="0.52" fill="#223142"/>
<circle cx="-113.0" cy="171.3" r="0.36" fill="#223142"/>
<circle cx="-276.3" cy="-178.0" r="0.43" fill="#223142"/>
<circle cx="211.3" cy="270.8" r="0.40" fill="#223142"/>
<circle cx="82.1" cy="-58.2" r="0.89" fill="#223142"/>
<circle cx="21.0" cy="254.8" r="0.28" fill="#223142"/>
<circle cx="272.8" cy="-186.4" r="0.87" fill="#223142"/>
<circle cx="-136.0" cy="-227.1" r="0.50" fill="#223142"/>
<circle cx="132.6" cy="-108.1" r="0.62" fill="#223142"/>
<circle cx="6.6" cy="-66.6" r="0.60" fill="#223142"/>
<circle cx="-142.3" cy="121.1" r="0.20" fill="#223142"/>
<circle cx="246.8" cy="22.3" r="0.70" fill="#223142"/>
<circle cx="140.3" cy="99.0" r="0.45" fill="#223142"/>
<circle cx="-249.4" cy="95.3" r="0.43" fill="#223142"/>
<circle cx="-107.9" cy="201.8" r="0.70" fill="#223142"/>
<circle cx="-115.8" cy="-110.6" r="0.49" fill="#223142"/>
<circle cx="-56.6" cy="-118.5" r="0.29" fill="#223142"/>
<circle cx="-46.1" cy="255.4" r="0.67" fill="#223142"/>
<circle cx="233.6" cy="67.0" r="0.41" fill="#223142"/>
<circle cx="27.8" cy="-289.8" r="0.40" fill="#223142"/>
<circle cx="-40.7" cy="46.4" r="0.66" fill="#223142"/>
<circle cx="-20.3" cy="-33.5" r="0.35" fill="#223142"/>
<circle cx="-15.6" cy="232.7" r="0.76" fill="#223142"/>
<circle cx="-191.6" cy="-240.8" r="0.56" fill="#223142"/>
<circle cx="77.1" cy="-95.6" r="0.77" fill="#223142"/>
<circle cx="145.7" cy="100.2" r="0.36" fill="#223142"/>
<circle cx="-174.5" cy="-275.8" r="0.37" fill="#223142"/>
<circle cx="-14.4" cy="202.8" r="0.25" fill="#223142"/>
<circle cx="-49.6" cy="75.3" r="0.34" fill="#223142"/>
<circle cx="113.9" cy="-3.3" r="0.37" fill="#223142"/>
<circle cx="90.5" cy="-286.8" r="0.73" fill="#223142"/>
<circle cx="156.6" cy="-228.2" r="0.50" fill="#223142"/>
<circle cx="-188.0" cy="265.6" r="0.56" fill="#223142"/>
<circle cx="-260.9" cy="-145.5" r="0.79" fill="#223142"/>
<circle cx="-25.3" cy="174.8" r="0.67" fill="#223142"/>
<circle cx="283.0" cy="55.4" r="0.87" fill="#223142"/>
<circle cx="227.0" cy="65.3" r="0.70" fill="#223142"/>
<circle cx="2.8" cy="191.7" r="0.58" fill="#223142"/>
<circle cx="230.4" cy="141.3" r="0.53" fill="#223142"/>
<circle cx="-139.7" cy="-146.6" r="0.65" fill="#223142"/>
<circle cx="154.2" cy="12.4" r="0.64" fill="#223142"/>
<circle cx="-130.7" cy="-245.1" r="0.40" fill="#223142"/>
<circle cx="-132.4" cy="-104.6" r="0.58" fill="#223142"/>
<circle cx="-209.7" cy="-155.9" r="0.69" fill="#223142"/>
<circle cx="119.7" cy="-252.7" r="0.49" fill="#223142"/>
<circle cx="24.7" cy="-48.9" r="0.34" fill="#223142"/>
<circle cx="-46.3" cy="234.8" r="0.61" fill="#223142"/>
<circle cx="113.4" cy="206.9" r="0.74" fill="#223142"/>
<circle cx="-69.4" cy="-286.6" r="0.45" fill="#223142"/>
<circle cx="147.0" cy="205.0" r="0.87" fill="#223142"/>
<circle cx="-47.0" cy="143.6" r="0.58" fill="#223142"/>
<circle cx="59.9" cy="-162.1" r="0.35" fill="#223142"/>
<circle cx="-37.2" cy="-273.2" r="0.44" fill="#223142"/>
<circle cx="103.9" cy="-55.5" r="0.32" fill="#223142"/>
<circle cx="-18.9" cy="-216.0" r="0.64" fill="#223142"/>
<circle cx="-274.4" cy="-61.5" r="0.60" fill="#223142"/>
<circle cx="-274.3" cy="82.8" r="0.29" fill="#223142"/>
<circle cx="-22.2" cy="-260.8" r="0.47" fill="#223142"/>
<circle cx="-167.2" cy="-100.4" r="0.73" fill="#223142"/>
<circle cx="-70.1" cy="146.2" r="0.78" fill="#223142"/>
<circle cx="-143.7" cy="-242.5" r="0.21" fill="#223142"/>
<circle cx="22.9" cy="289.9" r="0.44" fill="#223142"/>
<circle cx="87.1" cy="163.1" r="0.66" fill="#223142"/>
<circle cx="147.5" cy="260.8" r="0.34" fill="#223142"/>
<circle cx="-278.2" cy="-201.6" r="0.29" fill="#223142"/>
<circle cx="98.3" cy="37.1" r="0.35" fill="#223142"/>
<circle cx="115.7" cy="154.8" r="0.32" fill="#223142"/>
<circle cx="62.2" cy="143.8" r="0.28" fill="#223142"/>
<circle cx="185.2" cy="269.5" r="0.28" fill="#223142"/>
<circle cx="-275.1" cy="-109.1" r="0.67" fill="#223142"/>
<circle cx="265.7" cy="-59.9" r="0.70" fill="#223142"/>
<circle cx="-245.9" cy="110.6" r="0.64" fill="#223142"/>
<circle cx="-230.9" cy="158.0" r="0.80" fill="#223142"/>
<circle cx="58.2" cy="-219.8" r="0.89" fill="#223142"/>
<circle cx="163.9" cy="-88.6" r="0.50" fill="#223142"/>
<circle cx="-75.1" cy="3.5" r="0.44" fill="#223142"/>
<circle cx="202.8" cy="187.0" r="0.27" fill="#223142"/>
<circle cx="267.3" cy="78.6" r="0.78" fill="#223142"/>
<circle cx="120.2" cy="-37.4" r="0.71" fill="#223142"/>
<circle cx="270.0" cy="-133.4" r="0.77" fill="#223142"/>
<circle cx="22.1" cy="-9.6" r="0.50" fill="#223142"/>
<circle cx="134.0" cy="-134.3" r="0.80" fill="#223142"/>
<circle cx="191.8" cy="-239.7" r="0.82" fill="#223142"/>
<circle cx="-148.6" cy="-20.5" r="0.63" fill="#223142"/>
<circle cx="-70.2" cy="-273.4" r="0.80" fill="#223142"/>
<circle cx="-184.5" cy="-167.0" r="0.76" fill="#223142"/>
<circle cx="-92.6" cy="220.6" r="0.69" fill="#223142"/>
<circle cx="-129.8" cy="-284.1" r="0.86" fill="#223142"/>
<circle cx="-240.3" cy="127.6" r="0.54" fill="#223142"/>
<circle cx="149.7" cy="110.6" r="0.65" fill="#223142"/>
<circle cx="-5.3" cy="169.9" r="0.27" fill="#223142"/>
<circle cx="-161.5" cy="111.2" r="0.41" fill="#223142"/>
<circle cx="47.3" cy="-15.5" r="0.57" fill="#223142"/>
<circle cx="-43.2" cy="142.6" r="0.43" fill="#223142"/>
<circle cx="117.7" cy="-132.9" r="0.38" fill="#223142"/>
<circle cx="-220.0" cy="-178.3" r="0.28" fill="#223142"/>
<circle cx="20.8" cy="152.1" r="0.33" fill="#223142"/>
<circle cx="-164.5" cy="-9.2" r="0.71" fill="#223142"/>
<circle cx="276.4" cy="14.3" r="0.40" fill="#223142"/>
<circle cx="-231.7" cy="-177.4" r="0.36" fill="#223142"/>
<circle cx="-185.9" cy="-281.8" r="0.57" fill="#223142"/>
<circle cx="-130.9" cy="275.1" r="0.59" fill="#223142"/>
<circle cx="114.5" cy="-216.8" r="0.81" fill="#223142"/>
<circle cx="-5.3" cy="216.2" r="0.60" fill="#223142"/>
<circle cx="-17.7" cy="-34.5" r="0.33" fill="#223142"/>
<circle cx="-260.2" cy="255.8" r="0.53" fill="#223142"/>
<circle cx="186.8" cy="-57.6" r="0.25" fill="#223142"/>
<circle cx="75.1" cy="-258.9" r="0.30" fill="#223142"/>
<circle cx="36.4" cy="-113.8" r="0.90" fill="#223142"/>
<circle cx="-221.3" cy="153.4" r="0.62" fill="#223142"/>
<circle cx="168.6" cy="-159.1" r="0.57" fill="#223142"/>
<circle cx="-28.7" cy="-33.2" r="0.80" fill="#223142"/>
<circle cx="284.2" cy="-112.9" r="0.63" fill="#223142"/>
<circle cx="63.6" cy="139.3" r="0.86" fill="#223142"/>
<circle cx="-169.5" cy="-167.6" r="0.66" fill="#223142"/>
<circle cx="-198.9" cy="-189.2" r="0.25" fill="#223142"/>
<circle cx="-288.4" cy="-28.7" r="0.62" fill="#223142"/>
<circle cx="-121.1" cy="-155.7" r="0.69" fill="#223142"/>
<circle cx="117.7" cy="-26.7" r="0.68" fill="#223142"/>
<circle cx="245.9" cy="166.9" r="0.64" fill="#223142"/>
<circle cx="93.5" cy="251.5" r="0.50" fill="#223142"/>
<circle cx="25.8" cy="85.6" r="0.84" fill="#223142"/>
<circle cx="189.4" cy="-248.6" r="0.32" fill="#223142"/>
<circle cx="-111.6" cy="144.4" r="0.60" fill="#223142"/>
<circle cx="-122.6" cy="-217.9" r="0.68" fill="#223142"/>
<circle cx="115.8" cy="256.8" r="0.55" fill="#223142"/>
<circle cx="-3.6" cy="-243.3" r="0.23" fill="#223142"/>
<circle cx="-39.4" cy="-103.1" r="0.38" fill="#223142"/>
<circle cx="-237.0" cy="267.9" r="0.79" fill="#223142"/>
<circle cx="43.6" cy="261.5" r="0.90" fill="#223142"/>
<circle cx="99.9" cy="-133.7" r="0.23" fill="#223142"/>
<circle cx="148.6" cy="-17.1" r="0.66" fill="#223142"/>
<circle cx="241.3" cy="-184.7" r="0.61" fill="#223142"/>
<circle cx="78.2" cy="-4.8" r="0.26" fill="#223142"/>
<circle cx="-88.2" cy="-96.7" r="0.67" fill="#223142"/>
<circle cx="207.5" cy="-98.7" r="0.69" fill="#223142"/>
<circle cx="-122.8" cy="258.2" r="0.77" fill="#223142"/>
<circle cx="29.1" cy="-26.2" r="0.42" fill="#223142"/>
<line x1="-83.77" y1="205.94" x2="-159.83" y2="64.13" stroke="#2f4056" stroke-width="1.5"/>
<line x1="-159.83" y1="64.13" x2="196.63" y2="68.9" stroke="#2f4056" stroke-width="1.5"/>
<line x1="196.63" y1="68.9" x2="107.66" y2="160.52" stroke="#2f4056" stroke-width="1.5"/>
<line x1="107.66" y1="160.52" x2="-23.83" y2="175.29" stroke="#2f4056" stroke-width="1.5"/>
<line x1="-23.83" y1="175.29" x2="-83.77" y2="205.94" stroke="#2f4056" stroke-width="1.5"/>

    <g transform="translate(-83.77,205.94)" filter="url(#glow)">
      <circle r="5.76" fill="url(#halo)"/>
      <circle r="2.59" fill="#0b0f14" stroke="#8be9fd" stroke-width="1.2"/>
      <text x="0" y="19.76" fill="#a8b5c8" font-size="12" text-anchor="middle">Cernunnos</text>
    </g>
    
    <g transform="translate(107.66,160.52)" filter="url(#glow)">
      <circle r="5.90" fill="url(#halo)"/>
      <circle r="2.66" fill="#0b0f14" stroke="#8be9fd" stroke-width="1.2"/>
      <text x="0" y="19.90" fill="#a8b5c8" font-size="12" text-anchor="middle">Thoth</text>
    </g>
    
    <g transform="translate(-159.83,64.13)" filter="url(#glow)">
      <circle r="5.03" fill="url(#halo)"/>
      <circle r="2.26" fill="#0b0f14" stroke="#8be9fd" stroke-width="1.2"/>
      <text x="0" y="19.03" fill="#a8b5c8" font-size="12" text-anchor="middle">Apeiron</text>
    </g>
    
    <g transform="translate(-23.83,175.29)" filter="url(#glow)">
      <circle r="6.01" fill="url(#halo)"/>
      <circle r="2.70" fill="#0b0f14" stroke="#8be9fd" stroke-width="1.2"/>
      <text x="0" y="20.01" fill="#a8b5c8" font-size="12" text-anchor="middle">Azoth</text>
    </g>
    
    <g transform="translate(196.63,68.9)" filter="url(#glow)">
      <circle r="5.46" fill="url(#halo)"/>
      <circle r="2.46" fill="#0b0f14" stroke="#8be9fd" stroke-width="1.2"/>
      <text x="0" y="19.46" fill="#a8b5c8" font-size="12" text-anchor="middle">Yaldabaoth</text>
    </g>
    </g>
</svg>
