<svg xmlns="http://www.w3.org/2000/svg" viewBox="0 0 800 240" width="800" height="240">
<rect width="100%" height="100%" fill="#05050a"/>
<g transform="translate(40,20)" fill="none" stroke="#9aa7b2">
<line x1="0" x2="720" y1="20" y2="20" stroke="#9aa7b2" stroke-width="1"/>
<line x1="0" x2="720" y1="28" y2="28" stroke="#9aa7b2" stroke-width="1"/>
<line x1="0" x2="720" y1="36" y2="36" stroke="#9aa7b2" stroke-width="1"/>
<line x1="0" x2="720" y1="44" y2="44" stroke="#9aa7b2" stroke-width="1"/>
<line x1="0" x2="720" y1="52" y2="52" stroke="#9aa7b2" stroke-width="1"/>
<line x1="0" x2="720" y1="120" y2="120" stroke="#9aa7b2" stroke-width="1"/>
<line x1="0" x2="720" y1="128" y2="128" stroke="#9aa7b2" stroke-width="1"/>
<line x1="0" x2="720" y1="136" y2="136" stroke="#9aa7b2" stroke-width="1"/>
<line x1="0" x2="720" y1="144" y2="144" stroke="#9aa7b2" stroke-width="1"/>
<line x1="0" x2="720" y1="152" y2="152" stroke="#9aa7b2" stroke-width="1"/>
<ellipse cx="80" cy="44" rx="8" ry="6" fill="#ffd86b"/>
<ellipse cx="160" cy="28" rx="8" ry="6" fill="#ffd86b"/>
<ellipse cx="240" cy="36" rx="8" ry="6" fill="#ffd86b"/>
<ellipse cx="320" cy="52" rx="8" ry="6" fill="#ffd86b"/>
<ellipse cx="420" cy="44" rx="8" ry="6" fill="#ffd86b"/>
<ellipse cx="500" cy="28" rx="8" ry="6" fill="#ffd86b"/>
</g></svg>