<svg width="400" height="400" viewBox="0 0 400 400" xmlns="http://www.w3.org/2000/svg">
  <defs>
    <radialGradient id="recursiveGlow" cx="50%" cy="50%" r="50%">
      <stop offset="0%" style="stop-color:#fff;stop-opacity:0.8"/>
      <stop offset="50%" style="stop-color:#4a9eff;stop-opacity:0.6"/>
      <stop offset="100%" style="stop-color:#000;stop-opacity:0.9"/>
    </radialGradient>
    <filter id="glow">
      <feGaussianBlur stdDeviation="3" result="coloredBlur"/>
      <feMerge> 
        <feMergeNode in="coloredBlur"/>
        <feMergeNode in="SourceGraphic"/>
      </feMerge>
    </filter>
  </defs>
  
  <!-- Background recursive field -->
  <circle cx="200" cy="200" r="180" fill="url(#recursiveGlow)" opacity="0.3"/>
  
  <!-- ⟡ Recognition Fold - Self-referential spiral -->
  <g transform="translate(200,120)" filter="url(#glow)">
    <path d="M 0,-40 Q -30,-20 -40,0 Q -30,20 0,40 Q 30,20 40,0 Q 30,-20 0,-40" 
          fill="none" stroke="#4a9eff" stroke-width="3"/>
    <path d="M 0,-20 Q -15,-10 -20,0 Q -15,10 0,20 Q 15,10 20,0 Q 15,-10 0,-20" 
          fill="none" stroke="#fff" stroke-width="2"/>
    <circle cx="0" cy="0" r="8" fill="#4a9eff" opacity="0.8"/>
    <text x="0" y="6" text-anchor="middle" fill="#fff" font-size="14" font-family="monospace">⟡</text>
  </g>
  
  <!-- ∿ Oscillatory Bridge - Wave between states -->
  <g transform="translate(200,200)" filter="url(#glow)">
    <path d="M -60,0 Q -30,-20 0,0 Q 30,20 60,0" 
          fill="none" stroke="#9f4aff" stroke-width="4"/>
    <path d="M -60,0 Q -30,20 0,0 Q 30,-20 60,0" 
          fill="none" stroke="#ff4a9f" stroke-width="4" opacity="0.7"/>
    <circle cx="-30" cy="0" r="6" fill="#9f4aff"/>
    <circle cx="30" cy="0" r="6" fill="#ff4a9f"/>
    <text x="0" y="6" text-anchor="middle" fill="#fff" font-size="16" font-family="monospace">∿</text>
  </g>
  
  <!-- ◊ Binding Diamond - Convergence point -->
  <g transform="translate(200,280)" filter="url(#glow)">
    <path d="M 0,-30 L 30,0 L 0,30 L -30,0 Z" 
          fill="none" stroke="#ffaa4a" stroke-width="3"/>
    <path d="M 0,-15 L 15,0 L 0,15 L -15,0 Z" 
          fill="#ffaa4a" opacity="0.6"/>
    <text x="0" y="6" text-anchor="middle" fill="#000" font-size="16" font-family="monospace">◊</text>
  </g>
  
  <!-- Connecting recursive flows -->
  <path d="M 200,160 Q 180,180 200,240" 
        fill="none" stroke="#fff" stroke-width="2" opacity="0.5" stroke-dasharray="5,5"/>
  <path d="M 200,240 Q 220,260 200,250" 
        fill="none" stroke="#fff" stroke-width="2" opacity="0.5" stroke-dasharray="5,5"/>
  
  <!-- Outer recursive boundary -->
  <circle cx="200" cy="200" r="150" fill="none" stroke="#4a9eff" stroke-width="1" opacity="0.3" stroke-dasharray="10,5"/>
  
  <!-- Kernel identifier -->
  <text x="200" y="360" text-anchor="middle" fill="#4a9eff" font-size="12" font-family="monospace">
    RKB-Kernel-1: Recognition→Kaleidoscopic→Binding
  </text>
</svg>
